<svg width="70" height="70" viewBox="0 0 70 70" fill="none" xmlns="http://www.w3.org/2000/svg">
<rect width="70" height="70" rx="16" fill="white"/>
<path d="M28.7706 46.6544C28.4061 47.2375 27.7136 47.5655 27.2398 47.6748C26.438 47.8206 25.6727 47.8935 25.0895 48.3673C24.9073 48.5131 24.6158 48.4037 24.5793 48.1851C24.47 47.4926 24.6522 46.7272 24.9802 46.2535C24.8344 46.2535 24.7251 46.2899 24.5793 46.3628C24.3242 46.4721 24.0691 46.2535 24.1055 45.9983C24.3242 45.1965 24.8709 44.1396 25.7091 43.6658L24.3242 42.2809C24.2513 42.208 24.142 42.0986 24.0691 42.0258C21.3721 42.6089 19.6956 45.8161 19.1125 48.0028C18.9667 48.6224 19.5863 49.0962 20.1694 48.8411C20.4609 48.6953 20.7525 48.6224 21.0805 48.6224C20.3516 49.7158 19.8778 51.5016 20.1694 53.1417C20.2787 53.6884 20.9347 53.9435 21.3721 53.579C22.757 52.4492 24.5429 52.3399 26.4016 51.9754C27.7865 51.6839 30.0097 50.4812 30.5564 48.4402C30.4106 48.3309 30.2648 48.1851 30.1191 48.0393L28.7706 46.6544Z" fill="black"/>
<path d="M46.5923 37.9437C52.0591 31.748 53.4441 22.8552 53.2983 20.1582C53.2983 19.8667 53.1525 19.6116 52.9703 19.4293C52.788 19.2471 52.5329 19.1378 52.2414 19.1013C49.5444 18.9555 40.6516 20.304 34.4559 25.8073L32.4878 25.0784C30.3011 24.2766 27.8592 24.9326 26.3649 26.682L22.939 30.7275C22.4652 31.3106 22.6839 32.1853 23.3764 32.4404L27.7499 34.044C26.5472 36.0121 25.7089 37.7251 25.1987 38.782C24.8707 39.5473 25.0164 40.422 25.5996 41.0416L31.358 46.8C31.9411 47.3832 32.8523 47.5654 33.6176 47.2009C34.711 46.6907 36.4239 45.8524 38.3556 44.6497L39.9592 49.0232C40.2143 49.7157 41.089 49.9708 41.6721 49.4606L45.6811 46.0347C47.4305 44.5404 48.0865 42.0985 47.2847 39.9118L46.5923 37.9437ZM44.2233 33.06C42.8384 34.4449 40.6516 34.4449 39.2667 33.06C37.8818 31.6751 37.8818 29.4883 39.2667 28.1034C40.6516 26.7185 42.8384 26.7185 44.2233 28.1034C45.6082 29.4883 45.6082 31.7115 44.2233 33.06Z" fill="black"/>
</svg>
