<svg width="114" height="24" viewBox="0 0 114 24" fill="none" xmlns="http://www.w3.org/2000/svg">
<g opacity="0.5">
<path d="M2.96845 10.4632C3.37898 9.38947 4.37372 8.94737 5.36845 8.94737V11.2211C4.31056 11.0947 2.96845 11.5684 2.96845 13.2263V17H0.93161V9.10526H2.96845V10.4632ZM10.0246 17.2211C7.70357 17.2211 5.8562 15.4053 5.8562 13.0526C5.8562 10.7 7.70357 8.88421 10.0246 8.88421C12.3457 8.88421 14.2088 10.7 14.2088 13.0526C14.2088 15.4053 12.3457 17.2211 10.0246 17.2211ZM10.0246 15.2316C11.2404 15.2316 12.172 14.3316 12.172 13.0526C12.172 11.7737 11.2404 10.8737 10.0246 10.8737C8.82462 10.8737 7.89304 11.7737 7.89304 13.0526C7.89304 14.3316 8.82462 15.2316 10.0246 15.2316ZM19.3996 17.2211C16.9996 17.2211 15.2312 15.4053 15.2312 13.0526C15.2312 10.7 16.9996 8.88421 19.3996 8.88421C20.947 8.88421 22.2891 9.70526 22.9365 10.9211L21.1838 11.9474C20.868 11.3 20.1891 10.8895 19.3838 10.8895C18.168 10.8895 17.268 11.7895 17.268 13.0526C17.268 14.3 18.168 15.2 19.3838 15.2C20.2049 15.2 20.8838 14.8053 21.1996 14.1579L22.968 15.1684C22.2891 16.4 20.947 17.2211 19.3996 17.2211ZM31.3243 17H28.9558L26.0821 13.4158V17H24.0453V5.94737H26.0821V12.5789L28.7979 9.10526H31.2295L28.0558 13.0053L31.3243 17ZM33.4915 13.8895C33.7757 14.9316 34.6441 15.3737 35.7178 15.3737C36.5073 15.3737 37.1388 15.0421 37.4862 14.5842L39.1283 15.5316C38.3862 16.6053 37.202 17.2211 35.6862 17.2211C33.0336 17.2211 31.3599 15.4053 31.3599 13.0526C31.3599 10.7 33.0494 8.88421 35.5283 8.88421C37.8652 8.88421 39.5231 10.7316 39.5231 13.0526C39.5231 13.3526 39.4915 13.6211 39.4441 13.8895H33.4915ZM33.4599 12.3105H37.4862C37.2336 11.1737 36.381 10.7158 35.5283 10.7158C34.4388 10.7158 33.6967 11.3 33.4599 12.3105ZM45.2295 11.0632H43.4453V14.3474C43.4453 15.2 44.0611 15.2158 45.2295 15.1526V17C42.3716 17.3158 41.4084 16.4789 41.4084 14.3474V11.0632H40.0347V9.10526H41.4084V7.51053L43.4453 6.89474V9.10526H45.2295V11.0632Z" fill="white"/>
<path opacity="0.5" d="M49.9421 17.6316V6.10528H50.5106V17.6316H49.9421ZM60.2708 9.73685H60.8234V17.6316H60.2708V15.5158C59.6392 16.8895 58.2971 17.8053 56.6708 17.8053C54.3971 17.8053 52.5655 16.0053 52.5655 13.6842C52.5655 11.3632 54.3971 9.56317 56.6708 9.56317C58.2971 9.56317 59.6392 10.479 60.2708 11.8526V9.73685ZM56.6866 17.2684C58.6919 17.2684 60.2708 15.7053 60.2708 13.6842C60.2708 11.6632 58.6919 10.1 56.6866 10.1C54.6813 10.1 53.1182 11.6632 53.1182 13.6842C53.1182 15.7053 54.6813 17.2684 56.6866 17.2684ZM69.2443 9.73685H69.8127V17.6316H69.2443V15.879C68.6759 17.1895 67.5548 17.8053 66.2601 17.8053C64.4285 17.8053 63.2285 16.5737 63.2285 14.6947V9.73685H63.7811V14.6947C63.7811 16.1947 64.7127 17.2684 66.3074 17.2684C67.9811 17.2684 69.2443 16.0684 69.2443 13.9369V9.73685ZM75.9917 9.56317C77.8233 9.56317 79.0233 10.7947 79.0233 12.6737V17.6316H78.4706V12.6737C78.4706 11.1737 77.5391 10.1 75.9443 10.1C74.2706 10.1 73.0075 11.3 73.0075 13.4316V17.6316H72.4391V9.73685H73.0075V11.4895C73.5759 10.179 74.697 9.56317 75.9917 9.56317ZM84.9812 17.8053C82.6286 17.8053 80.8602 16.0053 80.8602 13.6842C80.8602 11.3632 82.6286 9.56317 84.9812 9.56317C86.5444 9.56317 87.8549 10.3526 88.4391 11.5369L87.9812 11.8053C87.476 10.779 86.3549 10.1 84.9812 10.1C82.9444 10.1 81.4128 11.6632 81.4128 13.6842C81.4128 15.7053 82.9444 17.2684 84.9812 17.2684C86.3391 17.2684 87.4602 16.5895 87.997 15.5632L88.4549 15.8316C87.8549 17.0316 86.5286 17.8053 84.9812 17.8053ZM93.9861 9.56317C95.8177 9.56317 97.0177 10.7947 97.0177 12.6737V17.6316H96.4651V12.6737C96.4651 11.1737 95.5335 10.1 93.9388 10.1C92.2651 10.1 91.0019 11.3 91.0019 13.4316V17.6316H90.4335V6.57896H91.0019V11.4895C91.5704 10.179 92.6914 9.56317 93.9861 9.56317ZM102.881 9.56317C105.281 9.56317 106.781 11.5526 106.781 13.7158C106.781 13.7947 106.781 13.9053 106.765 13.9842H99.423C99.5493 15.9579 101.034 17.2684 102.96 17.2684C104.302 17.2684 105.376 16.6526 105.865 15.7369L106.355 16.0211C105.739 17.0947 104.491 17.8053 102.96 17.8053C100.56 17.8053 98.8546 16.0684 98.8546 13.6842C98.8546 11.3632 100.513 9.56317 102.881 9.56317ZM102.881 10.1C100.955 10.1 99.5178 11.4737 99.4072 13.4632H106.213C106.07 11.379 104.618 10.1 102.881 10.1ZM109.366 11.5211C109.856 10.1474 111.024 9.62633 112.145 9.62633V10.1632C110.693 10.1632 109.366 11.1579 109.366 13.2421V17.6316H108.798V9.73685H109.366V11.5211Z" fill="white"/>
</g>
</svg>
