<svg width="143" height="12" viewBox="0 0 143 12" fill="none" xmlns="http://www.w3.org/2000/svg">
<path opacity="0.2" d="M5.04315 3.92045L4.13974 4.17614C4.08292 4.02557 3.99911 3.87926 3.88832 3.73722C3.78036 3.59233 3.63264 3.47301 3.44514 3.37926C3.25763 3.28551 3.01758 3.23864 2.72496 3.23864C2.3244 3.23864 1.99059 3.33097 1.72354 3.51562C1.45934 3.69744 1.32724 3.92898 1.32724 4.21023C1.32724 4.46023 1.41815 4.65767 1.59996 4.80256C1.78178 4.94744 2.06587 5.06818 2.45224 5.16477L3.42383 5.40341C4.00906 5.54545 4.44513 5.76278 4.73207 6.0554C5.019 6.34517 5.16246 6.71875 5.16246 7.17614C5.16246 7.55114 5.05451 7.88636 4.8386 8.18182C4.62553 8.47727 4.32724 8.71023 3.94371 8.88068C3.56019 9.05114 3.11417 9.13636 2.60565 9.13636C1.93803 9.13636 1.38548 8.99148 0.947976 8.7017C0.510476 8.41193 0.233487 7.98864 0.11701 7.43182L1.07156 7.19318C1.16246 7.54545 1.33434 7.80966 1.58718 7.9858C1.84286 8.16193 2.17667 8.25 2.5886 8.25C3.05735 8.25 3.42951 8.15057 3.70508 7.9517C3.98349 7.75 4.12269 7.50852 4.12269 7.22727C4.12269 7 4.04315 6.80966 3.88406 6.65625C3.72496 6.5 3.48065 6.38352 3.1511 6.30682L2.06019 6.05114C1.46076 5.90909 1.02042 5.68892 0.739169 5.39062C0.46076 5.08949 0.321555 4.71307 0.321555 4.26136C0.321555 3.89205 0.425249 3.56534 0.632635 3.28125C0.842862 2.99716 1.12837 2.77415 1.48917 2.61222C1.85281 2.45028 2.26474 2.36932 2.72496 2.36932C3.37269 2.36932 3.88121 2.51136 4.25053 2.79545C4.62269 3.07955 4.8869 3.45455 5.04315 3.92045ZM9.3354 9.13636C8.72177 9.13636 8.19336 8.99148 7.75018 8.7017C7.307 8.41193 6.96609 8.01278 6.72745 7.50426C6.48881 6.99574 6.3695 6.41477 6.3695 5.76136C6.3695 5.09659 6.49165 4.50994 6.73597 4.00142C6.98313 3.49006 7.32688 3.09091 7.76722 2.80398C8.2104 2.5142 8.72745 2.36932 9.31836 2.36932C9.77859 2.36932 10.1934 2.45455 10.5627 2.625C10.932 2.79545 11.2346 3.03409 11.4703 3.34091C11.7061 3.64773 11.8525 4.00568 11.9093 4.41477H10.9036C10.8269 4.11648 10.6564 3.85227 10.3922 3.62216C10.1309 3.3892 9.77859 3.27273 9.3354 3.27273C8.94336 3.27273 8.59961 3.375 8.30415 3.57955C8.01154 3.78125 7.78285 4.06676 7.61808 4.43608C7.45614 4.80256 7.37518 5.23295 7.37518 5.72727C7.37518 6.23295 7.45472 6.6733 7.61381 7.0483C7.77575 7.4233 8.00302 7.71449 8.29563 7.92188C8.59109 8.12926 8.93768 8.23295 9.3354 8.23295C9.59677 8.23295 9.83398 8.1875 10.0471 8.09659C10.2601 8.00568 10.4405 7.875 10.5882 7.70455C10.736 7.53409 10.8411 7.32955 10.9036 7.09091H11.9093C11.8525 7.47727 11.7118 7.82528 11.4874 8.13494C11.2658 8.44176 10.9718 8.68608 10.6053 8.8679C10.2417 9.04688 9.81836 9.13636 9.3354 9.13636ZM16.0385 9.13636C15.4476 9.13636 14.9292 8.99574 14.4831 8.71449C14.04 8.43324 13.6934 8.03977 13.4434 7.53409C13.1962 7.02841 13.0726 6.4375 13.0726 5.76136C13.0726 5.07955 13.1962 4.48437 13.4434 3.97585C13.6934 3.46733 14.04 3.07244 14.4831 2.79119C14.9292 2.50994 15.4476 2.36932 16.0385 2.36932C16.6294 2.36932 17.1465 2.50994 17.5897 2.79119C18.0357 3.07244 18.3823 3.46733 18.6294 3.97585C18.8794 4.48437 19.0044 5.07955 19.0044 5.76136C19.0044 6.4375 18.8794 7.02841 18.6294 7.53409C18.3823 8.03977 18.0357 8.43324 17.5897 8.71449C17.1465 8.99574 16.6294 9.13636 16.0385 9.13636ZM16.0385 8.23295C16.4874 8.23295 16.8567 8.1179 17.1465 7.88778C17.4363 7.65767 17.6507 7.35511 17.79 6.98011C17.9292 6.60511 17.9988 6.19886 17.9988 5.76136C17.9988 5.32386 17.9292 4.91619 17.79 4.53835C17.6507 4.16051 17.4363 3.85511 17.1465 3.62216C16.8567 3.3892 16.4874 3.27273 16.0385 3.27273C15.5897 3.27273 15.2203 3.3892 14.9306 3.62216C14.6408 3.85511 14.4263 4.16051 14.2871 4.53835C14.1479 4.91619 14.0783 5.32386 14.0783 5.76136C14.0783 6.19886 14.1479 6.60511 14.2871 6.98011C14.4263 7.35511 14.6408 7.65767 14.9306 7.88778C15.2203 8.1179 15.5897 8.23295 16.0385 8.23295ZM20.5396 11.4545V2.45455H21.5112V3.49432H21.6305C21.7044 3.38068 21.8066 3.2358 21.9373 3.05966C22.0708 2.88068 22.2612 2.72159 22.5083 2.58239C22.7583 2.44034 23.0964 2.36932 23.5225 2.36932C24.0737 2.36932 24.5595 2.5071 24.9799 2.78267C25.4004 3.05824 25.7285 3.44886 25.9643 3.95455C26.2001 4.46023 26.318 5.05682 26.318 5.74432C26.318 6.4375 26.2001 7.03835 25.9643 7.54688C25.7285 8.05256 25.4018 8.4446 24.9842 8.72301C24.5666 8.99858 24.085 9.13636 23.5396 9.13636C23.1191 9.13636 22.7825 9.06676 22.5297 8.92756C22.2768 8.78551 22.0822 8.625 21.9458 8.44602C21.8095 8.2642 21.7044 8.11364 21.6305 7.99432H21.5453V11.4545H20.5396ZM21.5282 5.72727C21.5282 6.22159 21.6007 6.65767 21.7456 7.03551C21.8904 7.41051 22.1021 7.70455 22.3805 7.91761C22.6589 8.12784 22.9998 8.23295 23.4032 8.23295C23.8237 8.23295 24.1745 8.12216 24.4558 7.90057C24.7399 7.67614 24.9529 7.375 25.095 6.99716C25.2399 6.61648 25.3123 6.19318 25.3123 5.72727C25.3123 5.26705 25.2413 4.85227 25.0993 4.48295C24.96 4.1108 24.7484 3.81676 24.4643 3.60085C24.1831 3.3821 23.8294 3.27273 23.4032 3.27273C22.9941 3.27273 22.6504 3.37642 22.372 3.58381C22.0936 3.78835 21.8833 4.07528 21.7413 4.4446C21.5993 4.81108 21.5282 5.23864 21.5282 5.72727ZM30.5964 9.13636C29.9657 9.13636 29.4217 8.99716 28.9643 8.71875C28.5098 8.4375 28.1589 8.04545 27.9118 7.54261C27.6674 7.03693 27.5453 6.44886 27.5453 5.77841C27.5453 5.10795 27.6674 4.51705 27.9118 4.00568C28.1589 3.49148 28.5027 3.09091 28.943 2.80398C29.3862 2.5142 29.9032 2.36932 30.4941 2.36932C30.835 2.36932 31.1717 2.42614 31.5041 2.53977C31.8365 2.65341 32.139 2.83807 32.4118 3.09375C32.6845 3.34659 32.9018 3.68182 33.0637 4.09943C33.2257 4.51705 33.3066 5.03125 33.3066 5.64205V6.06818H28.2612V5.19886H32.2839C32.2839 4.82955 32.21 4.5 32.0623 4.21023C31.9174 3.92045 31.71 3.69176 31.4402 3.52415C31.1731 3.35653 30.8578 3.27273 30.4941 3.27273C30.0936 3.27273 29.747 3.37216 29.4544 3.57102C29.1646 3.76705 28.9416 4.02273 28.7853 4.33807C28.6291 4.65341 28.551 4.99148 28.551 5.35227V5.93182C28.551 6.42614 28.6362 6.84517 28.8066 7.18892C28.9799 7.52983 29.22 7.78977 29.5268 7.96875C29.8336 8.14489 30.1902 8.23295 30.5964 8.23295C30.8606 8.23295 31.0993 8.19602 31.3123 8.12216C31.5282 8.04545 31.7143 7.93182 31.8706 7.78125C32.0268 7.62784 32.1475 7.4375 32.2328 7.21023L33.2044 7.48295C33.1021 7.8125 32.9302 8.10227 32.6887 8.35227C32.4473 8.59943 32.149 8.79261 31.7939 8.93182C31.4387 9.06818 31.0396 9.13636 30.5964 9.13636ZM38.3478 9V0.272727H39.3535V3.49432H39.4387C39.5126 3.38068 39.6149 3.2358 39.7456 3.05966C39.8791 2.88068 40.0694 2.72159 40.3166 2.58239C40.5666 2.44034 40.9047 2.36932 41.3308 2.36932C41.8819 2.36932 42.3677 2.5071 42.7882 2.78267C43.2086 3.05824 43.5368 3.44886 43.7726 3.95455C44.0083 4.46023 44.1262 5.05682 44.1262 5.74432C44.1262 6.4375 44.0083 7.03835 43.7726 7.54688C43.5368 8.05256 43.21 8.4446 42.7924 8.72301C42.3748 8.99858 41.8933 9.13636 41.3478 9.13636C40.9274 9.13636 40.5907 9.06676 40.3379 8.92756C40.085 8.78551 39.8904 8.625 39.7541 8.44602C39.6177 8.2642 39.5126 8.11364 39.4387 7.99432H39.3194V9H38.3478ZM39.3365 5.72727C39.3365 6.22159 39.4089 6.65767 39.5538 7.03551C39.6987 7.41051 39.9103 7.70455 40.1887 7.91761C40.4672 8.12784 40.8081 8.23295 41.2115 8.23295C41.6319 8.23295 41.9828 8.12216 42.264 7.90057C42.5481 7.67614 42.7612 7.375 42.9032 6.99716C43.0481 6.61648 43.1206 6.19318 43.1206 5.72727C43.1206 5.26705 43.0495 4.85227 42.9075 4.48295C42.7683 4.1108 42.5566 3.81676 42.2725 3.60085C41.9913 3.3821 41.6376 3.27273 41.2115 3.27273C40.8024 3.27273 40.4586 3.37642 40.1802 3.58381C39.9018 3.78835 39.6916 4.07528 39.5495 4.4446C39.4075 4.81108 39.3365 5.23864 39.3365 5.72727ZM46.0779 11.4545C45.9075 11.4545 45.7555 11.4403 45.622 11.4119C45.4885 11.3864 45.3961 11.3608 45.345 11.3352L45.6007 10.4489C45.845 10.5114 46.0609 10.5341 46.2484 10.517C46.4359 10.5 46.6021 10.4162 46.747 10.2656C46.8947 10.1179 47.0297 9.87784 47.1518 9.54545L47.3393 9.03409L44.9189 2.45455H46.0098L47.8166 7.67045H47.8848L49.6916 2.45455H50.7825L48.0041 9.95455C47.8791 10.2926 47.7243 10.5724 47.5396 10.794C47.3549 11.0185 47.1404 11.1847 46.8961 11.2926C46.6547 11.4006 46.3819 11.4545 46.0779 11.4545ZM55.4849 9V2.45455H56.4565V3.44318H56.5247C56.644 3.11932 56.8599 2.85653 57.1724 2.65483C57.4849 2.45312 57.8372 2.35227 58.2292 2.35227C58.3031 2.35227 58.3954 2.35369 58.5062 2.35653C58.617 2.35937 58.7008 2.36364 58.7576 2.36932V3.39205C58.7235 3.38352 58.6454 3.37074 58.5233 3.35369C58.4039 3.33381 58.2775 3.32386 58.144 3.32386C57.8258 3.32386 57.5417 3.39062 57.2917 3.52415C57.0446 3.65483 56.8485 3.83665 56.7037 4.0696C56.5616 4.29972 56.4906 4.5625 56.4906 4.85795V9H55.4849ZM62.4096 9.13636C61.8187 9.13636 61.3002 8.99574 60.8542 8.71449C60.411 8.43324 60.0645 8.03977 59.8145 7.53409C59.5673 7.02841 59.4437 6.4375 59.4437 5.76136C59.4437 5.07955 59.5673 4.48437 59.8145 3.97585C60.0645 3.46733 60.411 3.07244 60.8542 2.79119C61.3002 2.50994 61.8187 2.36932 62.4096 2.36932C63.0005 2.36932 63.5176 2.50994 63.9608 2.79119C64.4068 3.07244 64.7534 3.46733 65.0005 3.97585C65.2505 4.48437 65.3755 5.07955 65.3755 5.76136C65.3755 6.4375 65.2505 7.02841 65.0005 7.53409C64.7534 8.03977 64.4068 8.43324 63.9608 8.71449C63.5176 8.99574 63.0005 9.13636 62.4096 9.13636ZM62.4096 8.23295C62.8585 8.23295 63.2278 8.1179 63.5176 7.88778C63.8074 7.65767 64.0218 7.35511 64.161 6.98011C64.3002 6.60511 64.3699 6.19886 64.3699 5.76136C64.3699 5.32386 64.3002 4.91619 64.161 4.53835C64.0218 4.16051 63.8074 3.85511 63.5176 3.62216C63.2278 3.3892 62.8585 3.27273 62.4096 3.27273C61.9608 3.27273 61.5914 3.3892 61.3017 3.62216C61.0119 3.85511 60.7974 4.16051 60.6582 4.53835C60.519 4.91619 60.4494 5.32386 60.4494 5.76136C60.4494 6.19886 60.519 6.60511 60.6582 6.98011C60.7974 7.35511 61.0119 7.65767 61.3017 7.88778C61.5914 8.1179 61.9608 8.23295 62.4096 8.23295ZM69.5698 9.13636C68.9561 9.13636 68.4277 8.99148 67.9846 8.7017C67.5414 8.41193 67.2005 8.01278 66.9618 7.50426C66.7232 6.99574 66.6039 6.41477 66.6039 5.76136C66.6039 5.09659 66.726 4.50994 66.9703 4.00142C67.2175 3.49006 67.5613 3.09091 68.0016 2.80398C68.4448 2.5142 68.9618 2.36932 69.5527 2.36932C70.013 2.36932 70.4277 2.45455 70.7971 2.625C71.1664 2.79545 71.4689 3.03409 71.7047 3.34091C71.9405 3.64773 72.0868 4.00568 72.1436 4.41477H71.138C71.0613 4.11648 70.8908 3.85227 70.6266 3.62216C70.3652 3.3892 70.013 3.27273 69.5698 3.27273C69.1777 3.27273 68.834 3.375 68.5385 3.57955C68.2459 3.78125 68.0172 4.06676 67.8525 4.43608C67.6905 4.80256 67.6096 5.23295 67.6096 5.72727C67.6096 6.23295 67.6891 6.6733 67.8482 7.0483C68.0101 7.4233 68.2374 7.71449 68.53 7.92188C68.8255 8.12926 69.1721 8.23295 69.5698 8.23295C69.8311 8.23295 70.0684 8.1875 70.2814 8.09659C70.4945 8.00568 70.6749 7.875 70.8226 7.70455C70.9703 7.53409 71.0755 7.32955 71.138 7.09091H72.1436C72.0868 7.47727 71.9462 7.82528 71.7218 8.13494C71.5002 8.44176 71.2061 8.68608 70.8397 8.8679C70.476 9.04688 70.0527 9.13636 69.5698 9.13636ZM74.5513 6.61364L74.5343 5.36932H74.7388L77.6025 2.45455H78.8468L75.7956 5.53977H75.7104L74.5513 6.61364ZM73.6138 9V0.272727H74.6195V9H73.6138ZM77.7729 9L75.2161 5.76136L75.932 5.0625L79.0513 9H77.7729ZM82.6159 9.13636C81.9853 9.13636 81.4412 8.99716 80.9838 8.71875C80.5293 8.4375 80.1784 8.04545 79.9313 7.54261C79.687 7.03693 79.5648 6.44886 79.5648 5.77841C79.5648 5.10795 79.687 4.51705 79.9313 4.00568C80.1784 3.49148 80.5222 3.09091 80.9625 2.80398C81.4057 2.5142 81.9228 2.36932 82.5137 2.36932C82.8546 2.36932 83.1912 2.42614 83.5236 2.53977C83.856 2.65341 84.1586 2.83807 84.4313 3.09375C84.704 3.34659 84.9213 3.68182 85.0833 4.09943C85.2452 4.51705 85.3262 5.03125 85.3262 5.64205V6.06818H80.2807V5.19886H84.3034C84.3034 4.82955 84.2296 4.5 84.0819 4.21023C83.937 3.92045 83.7296 3.69176 83.4597 3.52415C83.1926 3.35653 82.8773 3.27273 82.5137 3.27273C82.1131 3.27273 81.7665 3.37216 81.4739 3.57102C81.1841 3.76705 80.9611 4.02273 80.8049 4.33807C80.6486 4.65341 80.5705 4.99148 80.5705 5.35227V5.93182C80.5705 6.42614 80.6557 6.84517 80.8262 7.18892C80.9995 7.52983 81.2395 7.78977 81.5463 7.96875C81.8532 8.14489 82.2097 8.23295 82.6159 8.23295C82.8801 8.23295 83.1188 8.19602 83.3319 8.12216C83.5478 8.04545 83.7338 7.93182 83.8901 7.78125C84.0463 7.62784 84.1671 7.4375 84.2523 7.21023L85.2239 7.48295C85.1216 7.8125 84.9498 8.10227 84.7083 8.35227C84.4668 8.59943 84.1685 8.79261 83.8134 8.93182C83.4583 9.06818 83.0591 9.13636 82.6159 9.13636ZM89.7026 2.45455V3.30682H86.3105V2.45455H89.7026ZM87.2992 0.886364H88.3049V7.125C88.3049 7.40909 88.3461 7.62216 88.4284 7.7642C88.5137 7.90341 88.6216 7.99716 88.7523 8.04545C88.8858 8.09091 89.0265 8.11364 89.1742 8.11364C89.285 8.11364 89.3759 8.10795 89.4469 8.09659C89.5179 8.08239 89.5748 8.07102 89.6174 8.0625L89.8219 8.96591C89.7537 8.99148 89.6586 9.01705 89.5364 9.04261C89.4142 9.07102 89.2594 9.08523 89.0719 9.08523C88.7878 9.08523 88.5094 9.02415 88.2367 8.90199C87.9668 8.77983 87.7424 8.59375 87.5634 8.34375C87.3873 8.09375 87.2992 7.77841 87.2992 7.39773V0.886364ZM95.5961 0.272727V9H94.5904V0.272727H95.5961ZM99.3642 9.15341C98.9494 9.15341 98.573 9.07528 98.2349 8.91903C97.8968 8.75994 97.6284 8.53125 97.4295 8.23295C97.2306 7.93182 97.1312 7.56818 97.1312 7.14205C97.1312 6.76705 97.2051 6.46307 97.3528 6.23011C97.5005 5.99432 97.698 5.80966 97.9451 5.67614C98.1923 5.54261 98.465 5.44318 98.7633 5.37784C99.0645 5.30966 99.367 5.25568 99.671 5.21591C100.069 5.16477 100.391 5.12642 100.638 5.10085C100.888 5.07244 101.07 5.02557 101.184 4.96023C101.3 4.89489 101.358 4.78125 101.358 4.61932V4.58523C101.358 4.16477 101.243 3.83807 101.013 3.60511C100.786 3.37216 100.441 3.25568 99.9778 3.25568C99.4977 3.25568 99.1213 3.3608 98.8485 3.57102C98.5758 3.78125 98.3841 4.00568 98.2733 4.24432L97.3187 3.90341C97.4892 3.50568 97.7164 3.19602 98.0005 2.97443C98.2875 2.75 98.6 2.59375 98.938 2.50568C99.2789 2.41477 99.6142 2.36932 99.9437 2.36932C100.154 2.36932 100.395 2.39489 100.668 2.44602C100.944 2.49432 101.209 2.59517 101.465 2.74858C101.724 2.90199 101.938 3.13352 102.108 3.44318C102.279 3.75284 102.364 4.16761 102.364 4.6875V9H101.358V8.11364H101.307C101.239 8.25568 101.126 8.40767 100.966 8.5696C100.807 8.73153 100.596 8.86932 100.331 8.98295C100.067 9.09659 99.7449 9.15341 99.3642 9.15341ZM99.5176 8.25C99.9153 8.25 100.251 8.17188 100.523 8.01562C100.799 7.85938 101.006 7.65767 101.145 7.41051C101.287 7.16335 101.358 6.90341 101.358 6.63068V5.71023C101.316 5.76136 101.222 5.80824 101.077 5.85085C100.935 5.89062 100.77 5.92614 100.583 5.95739C100.398 5.9858 100.218 6.01136 100.042 6.03409C99.8684 6.05398 99.7278 6.07102 99.6199 6.08523C99.3585 6.11932 99.1142 6.17472 98.8869 6.25142C98.6625 6.32528 98.4806 6.4375 98.3414 6.58807C98.2051 6.7358 98.1369 6.9375 98.1369 7.19318C98.1369 7.54261 98.2662 7.80682 98.5247 7.9858C98.786 8.16193 99.117 8.25 99.5176 8.25ZM108.325 6.32386V2.45455H109.33V9H108.325V7.89205H108.257C108.103 8.22443 107.865 8.5071 107.541 8.74006C107.217 8.97017 106.808 9.08523 106.313 9.08523C105.904 9.08523 105.541 8.99574 105.222 8.81676C104.904 8.63494 104.654 8.36222 104.472 7.99858C104.291 7.6321 104.2 7.17045 104.2 6.61364V2.45455H105.205V6.54545C105.205 7.02273 105.339 7.40341 105.606 7.6875C105.876 7.97159 106.22 8.11364 106.637 8.11364C106.887 8.11364 107.142 8.04972 107.4 7.92188C107.661 7.79403 107.88 7.59801 108.056 7.33381C108.235 7.0696 108.325 6.73295 108.325 6.32386ZM112.178 5.0625V9H111.172V2.45455H112.144V3.47727H112.229C112.383 3.14489 112.616 2.87784 112.928 2.67614C113.241 2.47159 113.644 2.36932 114.138 2.36932C114.581 2.36932 114.969 2.46023 115.302 2.64205C115.634 2.82102 115.893 3.09375 116.077 3.46023C116.262 3.82386 116.354 4.28409 116.354 4.84091V9H115.349V4.90909C115.349 4.39489 115.215 3.99432 114.948 3.70739C114.681 3.41761 114.314 3.27273 113.849 3.27273C113.528 3.27273 113.241 3.34233 112.988 3.48153C112.738 3.62074 112.54 3.82386 112.395 4.09091C112.251 4.35795 112.178 4.68182 112.178 5.0625ZM120.851 9.13636C120.237 9.13636 119.709 8.99148 119.266 8.7017C118.823 8.41193 118.482 8.01278 118.243 7.50426C118.004 6.99574 117.885 6.41477 117.885 5.76136C117.885 5.09659 118.007 4.50994 118.252 4.00142C118.499 3.49006 118.843 3.09091 119.283 2.80398C119.726 2.5142 120.243 2.36932 120.834 2.36932C121.294 2.36932 121.709 2.45455 122.078 2.625C122.448 2.79545 122.75 3.03409 122.986 3.34091C123.222 3.64773 123.368 4.00568 123.425 4.41477H122.419C122.343 4.11648 122.172 3.85227 121.908 3.62216C121.646 3.3892 121.294 3.27273 120.851 3.27273C120.459 3.27273 120.115 3.375 119.82 3.57955C119.527 3.78125 119.298 4.06676 119.134 4.43608C118.972 4.80256 118.891 5.23295 118.891 5.72727C118.891 6.23295 118.97 6.6733 119.129 7.0483C119.291 7.4233 119.519 7.71449 119.811 7.92188C120.107 8.12926 120.453 8.23295 120.851 8.23295C121.112 8.23295 121.35 8.1875 121.563 8.09659C121.776 8.00568 121.956 7.875 122.104 7.70455C122.252 7.53409 122.357 7.32955 122.419 7.09091H123.425C123.368 7.47727 123.227 7.82528 123.003 8.13494C122.781 8.44176 122.487 8.68608 122.121 8.8679C121.757 9.04688 121.334 9.13636 120.851 9.13636ZM125.901 5.0625V9H124.895V0.272727H125.901V3.47727H125.986C126.139 3.1392 126.369 2.87074 126.676 2.67188C126.986 2.47017 127.398 2.36932 127.912 2.36932C128.358 2.36932 128.749 2.45881 129.084 2.63778C129.419 2.81392 129.679 3.08523 129.864 3.4517C130.051 3.81534 130.145 4.27841 130.145 4.84091V9H129.139V4.90909C129.139 4.3892 129.004 3.98722 128.735 3.70312C128.468 3.41619 128.097 3.27273 127.622 3.27273C127.293 3.27273 126.997 3.34233 126.736 3.48153C126.477 3.62074 126.273 3.82386 126.122 4.09091C125.975 4.35795 125.901 4.68182 125.901 5.0625ZM134.729 9.13636C134.099 9.13636 133.555 8.99716 133.097 8.71875C132.643 8.4375 132.292 8.04545 132.045 7.54261C131.8 7.03693 131.678 6.44886 131.678 5.77841C131.678 5.10795 131.8 4.51705 132.045 4.00568C132.292 3.49148 132.635 3.09091 133.076 2.80398C133.519 2.5142 134.036 2.36932 134.627 2.36932C134.968 2.36932 135.305 2.42614 135.637 2.53977C135.969 2.65341 136.272 2.83807 136.545 3.09375C136.817 3.34659 137.035 3.68182 137.197 4.09943C137.358 4.51705 137.439 5.03125 137.439 5.64205V6.06818H132.394V5.19886H136.417C136.417 4.82955 136.343 4.5 136.195 4.21023C136.05 3.92045 135.843 3.69176 135.573 3.52415C135.306 3.35653 134.991 3.27273 134.627 3.27273C134.226 3.27273 133.88 3.37216 133.587 3.57102C133.297 3.76705 133.074 4.02273 132.918 4.33807C132.762 4.65341 132.684 4.99148 132.684 5.35227V5.93182C132.684 6.42614 132.769 6.84517 132.939 7.18892C133.113 7.52983 133.353 7.78977 133.66 7.96875C133.966 8.14489 134.323 8.23295 134.729 8.23295C134.993 8.23295 135.232 8.19602 135.445 8.12216C135.661 8.04545 135.847 7.93182 136.003 7.78125C136.16 7.62784 136.28 7.4375 136.366 7.21023L137.337 7.48295C137.235 7.8125 137.063 8.10227 136.822 8.35227C136.58 8.59943 136.282 8.79261 135.927 8.93182C135.572 9.06818 135.172 9.13636 134.729 9.13636ZM138.969 9V2.45455H139.941V3.44318H140.009C140.128 3.11932 140.344 2.85653 140.657 2.65483C140.969 2.45312 141.322 2.35227 141.714 2.35227C141.787 2.35227 141.88 2.35369 141.991 2.35653C142.101 2.35937 142.185 2.36364 142.242 2.36932V3.39205C142.208 3.38352 142.13 3.37074 142.008 3.35369C141.888 3.33381 141.762 3.32386 141.628 3.32386C141.31 3.32386 141.026 3.39062 140.776 3.52415C140.529 3.65483 140.333 3.83665 140.188 4.0696C140.046 4.29972 139.975 4.5625 139.975 4.85795V9H138.969Z" fill="white"/>
</svg>
